<svg width="70" height="70" viewBox="0 0 70 70" fill="none" xmlns="http://www.w3.org/2000/svg">
<path d="M32.0833 43.7497H37.9166V49.583H32.0833V43.7497ZM32.0833 20.4163H37.9166V37.9163H32.0833V20.4163ZM34.9707 5.83301C18.8708 5.83301 5.83325 18.8997 5.83325 34.9997C5.83325 51.0997 18.8708 64.1663 34.9707 64.1663C51.0999 64.1663 64.1666 51.0997 64.1666 34.9997C64.1666 18.8997 51.0999 5.83301 34.9707 5.83301ZM34.9999 58.333C22.1083 58.333 11.6666 47.8913 11.6666 34.9997C11.6666 22.108 22.1083 11.6663 34.9999 11.6663C47.8916 11.6663 58.3332 22.108 58.3332 34.9997C58.3332 47.8913 47.8916 58.333 34.9999 58.333Z" fill="#00925E"/>
</svg>
