<svg width="60" height="60" viewBox="0 0 60 60" fill="none" xmlns="http://www.w3.org/2000/svg">
<path d="M30.0002 0.833374C13.9002 0.833374 0.833496 13.9 0.833496 30C0.833496 46.1 13.9002 59.1667 30.0002 59.1667C46.1002 59.1667 59.1668 46.1 59.1668 30C59.1668 13.9 46.1002 0.833374 30.0002 0.833374ZM30.0002 53.3334C17.1377 53.3334 6.66683 42.8625 6.66683 30C6.66683 17.1375 17.1377 6.66671 30.0002 6.66671C42.8627 6.66671 53.3335 17.1375 53.3335 30C53.3335 42.8625 42.8627 53.3334 30.0002 53.3334ZM43.3877 17.1084L24.1668 36.3292L16.6127 28.8042L12.5002 32.9167L24.1668 44.5834L47.5002 21.25L43.3877 17.1084Z" fill="#00925E"/>
</svg>
