<svg width="250" height="86" viewBox="0 0 250 86" fill="none" xmlns="http://www.w3.org/2000/svg">
<path d="M0 0V21.3187L21.0121 0H0Z" fill="#636569"/>
<path d="M21.012 0V21.3187L41.9857 0H21.012Z" fill="#569B78"/>
<path d="M0 21.3316V42.6503L21.0121 21.3187L0 21.3316Z" fill="#569B78"/>
<path d="M30.1904 57.4413V85.5208H34.3009V74.0066H44.424V70.3931H34.3009V61.0419H46.4026V57.4413H30.1904Z" fill="#636569"/>
<mask id="mask0_54302_8337" style="mask-type:luminance" maskUnits="userSpaceOnUse" x="0" y="0" width="250" height="86">
<path d="M250 0H0V86H250V0Z" fill="white"/>
</mask>
<g mask="url(#mask0_54302_8337)">
<path d="M50.7046 59.1639C50.6998 58.6692 50.8391 58.1841 51.1049 57.7694C51.3707 57.3547 51.7512 57.0288 52.1988 56.8326C52.6464 56.6364 53.1411 56.5786 53.6209 56.6665C54.1008 56.7544 54.5443 56.984 54.8961 57.3266C55.2478 57.6692 55.492 58.1095 55.5982 58.5923C55.7043 59.0752 55.6676 59.579 55.4926 60.0408C55.3176 60.5025 55.0122 60.9016 54.6147 61.188C54.2171 61.4744 53.7451 61.6353 53.2577 61.6506C52.921 61.6945 52.5789 61.6613 52.2565 61.5534C51.9341 61.4454 51.6396 61.2656 51.3947 61.0271C51.1498 60.7885 50.9607 60.4974 50.8413 60.1749C50.7218 59.8525 50.6752 59.507 50.7046 59.1639ZM55.2108 85.4819H51.2152V65.1735H55.2108V85.4819Z" fill="#636569"/>
<path d="M69.8784 64.759C70.8217 64.7559 71.7628 64.8514 72.6868 65.044L72.1379 68.4503C71.5149 68.2418 70.8659 68.124 70.2103 68.1006C68.6207 68.0603 67.046 68.4208 65.6275 69.1497V85.4819H61.5808V66.6241C64.1631 65.3473 67.0063 64.7083 69.8784 64.759Z" fill="#636569"/>
<path d="M87.712 69.1109C86.0087 68.4963 84.2213 68.1555 82.4143 68.1006C80.3208 68.1006 78.8528 68.8259 78.8528 70.6003C78.8528 72.3747 80.3974 72.9575 82.6824 73.6828C87.112 74.9262 89.3588 76.4157 89.3588 79.9386C89.3588 84.0313 86.0397 86 81.5718 86C79.2344 85.9731 76.9193 85.5348 74.7295 84.7048L75.3295 81.2855C77.2994 82.1074 79.4038 82.5468 81.5335 82.5807C83.8696 82.5807 85.3632 81.6482 85.3632 79.9904C85.3632 78.3325 83.9973 77.7109 80.6782 76.7265C77.3592 75.7422 74.8954 74.1362 74.8954 70.678C74.8954 66.7925 77.589 64.6943 82.1335 64.6943C84.1993 64.6755 86.2507 65.0443 88.1844 65.7822L87.712 69.1109Z" fill="#636569"/>
<path d="M100.478 86C96.4437 86 94.0948 83.8759 94.0948 78.9024V68.4633H91.2354V65.1735H94.0693V60.5238L98.0649 60.3295V65.1735H103.005V68.4633H98.0649V78.8247C98.0649 81.5187 99.2138 82.5678 101.154 82.5678C101.928 82.5641 102.7 82.4685 103.452 82.2828L103.682 85.5726C102.634 85.8386 101.558 85.9734 100.478 85.9741" fill="#636569"/>
<path d="M117.085 85.5208V57.4413H133.298V61.0419H121.196V70.3931H131.319V74.0066H121.196V85.5208H117.085Z" fill="#636569"/>
<path d="M137.6 59.1639C137.594 58.6664 137.735 58.1786 138.004 57.7623C138.272 57.346 138.656 57.0199 139.108 56.8254C139.559 56.6309 140.057 56.5767 140.539 56.6696C141.02 56.7626 141.464 56.9985 141.813 57.3476C142.163 57.6966 142.402 58.1431 142.501 58.6303C142.6 59.1175 142.555 59.6237 142.37 60.0845C142.185 60.5454 141.87 60.9402 141.464 61.219C141.058 61.4978 140.579 61.648 140.089 61.6506C139.757 61.6841 139.422 61.6431 139.108 61.5306C138.793 61.418 138.507 61.2366 138.27 60.9993C138.032 60.762 137.849 60.4745 137.733 60.1573C137.617 59.8401 137.572 59.501 137.6 59.1639ZM142.106 85.482H138.11V65.1735H142.106V85.482Z" fill="#636569"/>
<path d="M148.348 85.482V66.5853C151.077 65.3581 154.032 64.7356 157.016 64.7591C162.556 64.7591 165.479 67.6085 165.479 72.5301V85.482H161.484V72.7244C161.484 69.7844 160.029 68.1006 157.016 68.1006C155.417 68.0853 153.835 68.4443 152.395 69.1497V85.482H148.348Z" fill="#636569"/>
<path d="M177.811 86C172.628 86 170.024 83.4096 170.024 79.8997C170.024 75.7292 173.305 73.6828 177.811 73.6828C179.218 73.6823 180.621 73.8298 181.998 74.1232V72.4395C181.998 69.6289 180.492 68.1006 177.377 68.1006C175.564 68.0906 173.765 68.4336 172.079 69.1108L171.288 65.8599C173.362 65.0776 175.559 64.6827 177.773 64.6943C183.185 64.6943 185.917 67.5437 185.917 72.6337V84.1867C183.415 85.4964 180.624 86.1341 177.811 86.0389M181.998 82.1533V76.9726C180.784 76.6559 179.536 76.4949 178.283 76.4934C175.832 76.4934 174.007 77.3741 174.007 79.8608C174.007 81.9849 175.513 83.0599 178.168 83.0599C179.495 83.1163 180.813 82.8264 181.998 82.2181" fill="#636569"/>
<path d="M191.879 85.4819V66.5852C194.591 65.3653 197.528 64.7429 200.495 64.759C206.036 64.759 208.959 67.6084 208.959 72.5301V85.4819H204.963V72.7244C204.963 69.7843 203.495 68.1006 200.495 68.1006C198.896 68.0839 197.314 68.4429 195.874 69.1497V85.4819H191.879Z" fill="#636569"/>
<path d="M229.32 65.8988L228.503 69.1497C227.002 68.49 225.389 68.1337 223.754 68.1006C219.924 68.1006 217.793 70.95 217.793 75.3666C217.793 80.0551 220.001 82.5937 224.175 82.5937C225.754 82.5668 227.307 82.1818 228.72 81.4669L229.435 84.7566C227.712 85.6065 225.823 86.0493 223.907 86.0518C217.422 86.0518 213.695 82.0756 213.695 75.4961C213.695 68.9166 217.244 64.7461 223.46 64.7461C225.457 64.7401 227.434 65.1501 229.269 65.9506" fill="#636569"/>
<path d="M242.685 86C236.392 86 232.243 82.1145 232.243 75.3277C232.243 69.072 235.92 64.6943 241.69 64.6943C246.911 64.6943 250 68.5021 250 73.6051C249.992 74.5012 249.937 75.3961 249.834 76.2861H236.354C236.749 80.5861 239.162 82.5419 243.043 82.5419C245.027 82.5147 246.986 82.0968 248.813 81.3114L249.477 84.5882C247.339 85.5489 245.023 86.0305 242.685 86ZM236.392 73.6828H246.081C246.1 73.4674 246.1 73.2507 246.081 73.0352C246.081 70.3542 244.702 68.0229 241.651 68.0229C238.6 68.0229 236.711 70.2376 236.354 73.6828" fill="#636569"/>
<path d="M29.1565 42.2618C29.2675 39.1505 30.0566 36.1029 31.4671 33.338L34.3393 34.5166C33.4238 36.6711 32.8922 38.9734 32.7691 41.3163C32.7691 44.9817 34.7095 47.1446 39.1519 47.1446C43.9262 47.1446 46.8112 44.2693 46.8112 40.4485C46.8112 39.5419 46.8112 37.7675 46.5048 16.2157L49.7856 15.9048L50.092 33.6747C50.092 38.2985 51.5855 39.244 55.4279 39.244H55.7598V43.2461H54.8918C54.0007 43.3224 53.1035 43.2174 52.253 42.9372C51.4025 42.6569 50.6156 42.2071 49.9388 41.6142C49.3388 47.5202 45.3559 51.1079 38.5392 51.1079C32.5011 51.1079 29.2203 47.8181 29.2203 42.2229" fill="#636569"/>
<path d="M58.9258 49.2169L56.7684 51.6389L54.2153 49.45L56.3344 46.8597L58.9258 49.2169ZM54.7515 41.2775C54.7515 40.1895 55.16 39.2829 55.76 39.2829H55.9387C57.9335 39.3522 59.9228 39.0312 61.7981 38.3374C61.8171 38.0441 61.8171 37.7499 61.7981 37.4567C61.7709 34.717 61.4195 31.9905 60.7513 29.3359L64.0703 28.494C64.6496 30.9245 64.9495 33.4149 64.9639 35.9154C64.9902 37.6982 64.7754 39.4762 64.3256 41.1997C61.736 42.6019 58.8351 43.3065 55.9004 43.2461H55.76C55.16 43.2461 54.7515 42.3395 54.7515 41.2386M64.0703 49.0097L61.9002 51.4317L59.3471 49.2428L61.4662 46.6525L64.0703 49.0097Z" fill="#636569"/>
<path d="M69.2146 51.069L69.5848 47.7404C70.6604 47.9595 71.7557 48.0637 72.8528 48.0512C78.3802 48.0512 80.5121 45.0593 81.0227 42.7928C79.8993 42.8705 78.1122 42.9482 77.0271 42.9482C71.0018 42.9482 69.5082 39.9175 69.5082 36.1744C69.5082 31.2268 72.4187 27.3283 76.6186 27.3283C81.2397 27.3283 84.4566 31.8226 84.4566 39.2828H87.0097V43.2849H84.0354C82.8865 48.6211 79.2355 51.6 73.2357 51.6C71.877 51.6224 70.5224 51.4435 69.2146 51.069ZM81.3163 39.2828C81.3163 35.2678 79.6057 30.916 76.4782 30.916C73.7591 30.916 72.5592 33.5063 72.5592 35.6045C72.5592 37.7027 73.7208 39.2828 77.9717 39.2828H81.3163Z" fill="#636569"/>
<path d="M106.209 41.6919C104.313 42.8132 102.148 43.3781 99.9542 43.3238C97.2574 43.3833 94.6 42.6598 92.2949 41.2386C91.6714 41.9321 90.9032 42.4757 90.0463 42.8298C89.1894 43.1838 88.2655 43.3393 87.3418 43.285H87.0099C86.41 43.285 86.0015 42.3783 86.0015 41.2774C86.0015 40.1765 86.41 39.2829 87.0099 39.2829H87.5333C90.329 39.2829 91.363 37.2753 93.1629 33.6747C94.8735 30.3461 96.5841 27.9371 100.503 27.9371C104.422 27.9371 106.12 30.7994 107.282 35.7082C107.958 38.5835 108.737 39.2699 111.201 39.2699H112.094V43.272H111.047C110.187 43.3481 109.32 43.2462 108.499 42.9723C107.679 42.6985 106.921 42.2585 106.273 41.6789M104.677 38.6741V38.5576C103.567 33.7913 102.712 31.5636 100.248 31.5636C98.384 31.5636 97.1968 32.5479 95.2182 36.5112L94.2863 38.2985C96.1818 39.1719 98.2427 39.6139 100.324 39.5937C101.827 39.644 103.32 39.3286 104.677 38.6741Z" fill="#636569"/>
<path d="M111.06 41.2774C111.06 40.1895 111.469 39.2829 112.056 39.2829H112.656C117.915 39.2829 118.541 37.4178 118.541 35.0347V30.0094L121.898 29.7503V34.6979C121.927 35.9115 121.789 37.1233 121.489 38.2985C123.259 39.041 125.168 39.3771 127.081 39.2829H127.336V43.285H126.596C124.146 43.4782 121.707 42.7955 119.702 41.3551C118.285 42.6503 116.128 43.285 112.924 43.285H112.056C111.469 43.285 111.06 42.3783 111.06 41.2774ZM116.536 24.725L114.328 27.1988L111.775 25.01L113.894 22.4196L116.536 24.725ZM121.643 24.6085L119.485 27.0175L116.932 24.8286L119.051 22.2383L121.643 24.6085Z" fill="#636569"/>
<path d="M126.289 41.2774C126.289 40.1895 126.698 39.2829 127.298 39.2829H128C132.519 39.2829 132.736 37.2365 132.736 34.1021V16.2157L136.246 15.9048V33.6747C136.246 37.6509 137.689 39.244 141.608 39.244H141.94V43.2461H141.008C139.814 43.335 138.616 43.1266 137.519 42.639C136.423 42.1515 135.46 41.3995 134.715 40.4485C133.591 42.2618 131.434 43.2461 127.706 43.2461H127.298C126.698 43.2461 126.289 42.3395 126.289 41.2386" fill="#636569"/>
<path d="M140.931 41.2774C140.931 40.1895 141.34 39.2829 141.94 39.2829H142.233C143.83 39.2969 145.421 39.1054 146.969 38.713C147.123 36.9386 147.238 34.6591 147.238 31.5247C147.238 29.4395 147.238 26.5383 147.084 16.2157L150.62 15.9048C150.735 25.9684 150.735 28.9862 150.735 30.6181C150.735 36.0967 150.735 38.8943 149.88 41.653C147.468 42.7375 144.859 43.2936 142.221 43.285H141.953C141.353 43.285 140.944 42.3783 140.944 41.2774" fill="#636569"/>
<path d="M164.522 42.7409C164.596 39.5838 165.373 36.4844 166.794 33.6747L169.59 34.8533C168.68 37.0349 168.161 39.3639 168.058 41.7307C168.058 45.6163 170.292 48.0123 175.717 48.0123C180.262 48.0123 183.721 46.2379 184.653 42.9093C182.206 42.4929 179.794 41.8823 177.441 41.0831L178.219 37.5732C181.87 38.6362 185.643 39.2109 189.44 39.2828H189.887V43.2849H189.479C188.802 43.2849 188.202 43.2849 187.5 43.2072C186.683 48.2714 182.202 51.8331 174.9 51.8331C168.122 51.8331 164.471 48.4656 164.471 42.7669" fill="#636569"/>
<path d="M188.93 41.2774C188.93 40.1895 189.338 39.2829 189.938 39.2829H190.206C191.802 39.2969 193.394 39.1054 194.942 38.713C195.083 36.9386 195.198 34.6591 195.198 31.5247C195.198 29.4395 195.198 26.5383 195.057 16.2157L198.593 15.9048C198.708 25.9684 198.708 28.9862 198.708 30.6181C198.708 36.0967 198.708 38.8943 197.853 41.653C195.441 42.7372 192.831 43.2932 190.193 43.285H189.938C189.338 43.285 188.93 42.3783 188.93 41.2774Z" fill="#636569"/>
<path d="M203.24 51.069L203.61 47.7404C204.686 47.9595 205.781 48.0637 206.878 48.0512C212.776 48.0512 214.857 44.606 215.163 42.1193C213.607 42.683 211.965 42.9636 210.312 42.9482C205.129 42.9482 203.572 40.1506 203.572 36.1744C203.572 31.1879 206.482 27.3283 210.644 27.3283C215.265 27.3283 218.482 31.978 218.482 39.2828C218.482 47.0539 214.652 51.6 207.261 51.6C205.902 51.6224 204.548 51.4435 203.24 51.069ZM215.342 38.8554C215.201 34.9699 213.555 30.916 210.504 30.916C207.785 30.916 206.585 33.5063 206.585 35.6045C206.585 37.884 207.708 39.3087 211.576 39.3087C212.844 39.3032 214.107 39.1511 215.342 38.8554Z" fill="#636569"/>
<path d="M220.154 21.0856L219.554 19.2723C220.448 18.8967 221.226 18.56 222.043 18.288C221.55 17.9511 221.146 17.4958 220.868 16.9626C220.59 16.4294 220.445 15.8347 220.448 15.2313C220.426 14.7449 220.507 14.2595 220.685 13.8072C220.862 13.3549 221.133 12.9461 221.478 12.6081C221.823 12.27 222.236 12.0103 222.688 11.8462C223.139 11.6822 223.62 11.6176 224.099 11.6566C225.113 11.6534 226.112 11.9025 227.009 12.3819L226.333 14.1175C225.671 13.8483 224.965 13.7078 224.252 13.703C223.167 13.703 222.312 14.2729 222.312 15.322C222.322 15.6186 222.393 15.9098 222.519 16.1773C222.646 16.4448 222.826 16.6827 223.048 16.8762C223.27 17.0696 223.529 17.2144 223.809 17.3013C224.088 17.3882 224.383 17.4155 224.673 17.3813C225.686 17.2784 226.692 17.114 227.686 16.8892L228.069 18.819C225.352 19.2955 222.691 20.055 220.129 21.0856M221.175 42.4949V38.8554C222.732 39.165 224.313 39.3383 225.899 39.3735C225.899 38.8813 225.899 38.3633 225.899 37.8711C225.721 32.6978 224.477 27.6196 222.248 22.9636L225.49 21.759C227.779 26.4882 228.942 31.6963 228.886 36.9645C228.886 37.7157 228.886 38.5057 228.809 39.3087C230.827 39.1267 232.783 38.5037 234.541 37.4825C234.92 35.4555 235.083 33.3929 235.026 31.3304C235.026 30.0353 235.026 27.7687 234.771 16.2804L238.23 15.9696C238.46 24.6343 238.498 27.8464 238.498 29.5042C238.498 35.488 237.898 37.9747 237.12 40.2931C234.235 42.3739 230.764 43.4508 227.226 43.3627C225.172 43.4069 223.125 43.1139 221.163 42.4949" fill="#636569"/>
<path d="M244 43.285V16.2157L247.498 15.9048V43.285H244Z" fill="#636569"/>
</g>
</svg>
